<svg width="15" height="15" viewBox="0 0 15 15" fill="none" xmlns="http://www.w3.org/2000/svg">
<path d="M15 7.54328C14.9998 6.10155 14.5889 4.69008 13.816 3.47595C13.0431 2.26182 11.9406 1.29589 10.6389 0.692502C9.33718 0.089118 7.89086 -0.126448 6.47116 0.0713261C5.05146 0.2691 3.71782 0.87193 2.62813 1.80845C1.53844 2.74497 0.738335 3.97596 0.32254 5.35568C-0.0932545 6.7354 -0.107328 8.20607 0.281986 9.59359C0.671301 10.9811 1.4477 12.2274 2.51926 13.1848C3.59083 14.1422 4.91269 14.7708 6.32834 14.996V9.72027H4.42341V7.54328H6.32834V5.88191C6.28729 5.49367 6.33165 5.10111 6.45828 4.73204C6.58491 4.36297 6.79069 4.02644 7.06106 3.74632C7.33142 3.46619 7.65973 3.24932 8.02272 3.11108C8.38572 2.97284 8.77449 2.91662 9.1615 2.94641C9.72508 2.95413 10.2873 3.00337 10.8438 3.09373V4.9492H9.89378C9.73277 4.92858 9.56922 4.94444 9.41509 4.99562C9.26096 5.0468 9.12016 5.132 9.003 5.24499C8.88583 5.35798 8.79527 5.4959 8.73794 5.64864C8.68061 5.80139 8.65796 5.9651 8.67166 6.12778V7.54328H10.7498L10.4173 9.72425H8.67166V15C10.4364 14.7186 12.0433 13.813 13.2034 12.446C14.3635 11.0791 15.0006 9.34058 15 7.54328Z" fill="#8E959F"/>
</svg>
