<svg width="15" height="15" viewBox="0 0 15 15" fill="none" xmlns="http://www.w3.org/2000/svg">
<path d="M7.501 3.6548C6.74054 3.6548 5.99716 3.88035 5.36487 4.30292C4.73257 4.72549 4.23976 5.32611 3.94874 6.02881C3.65773 6.73152 3.58159 7.50477 3.72995 8.25076C3.8783 8.99675 4.2445 9.68199 4.78222 10.2198C5.31994 10.7576 6.00504 11.1239 6.75089 11.2723C7.49673 11.4207 8.26982 11.3445 8.97239 11.0535C9.67495 10.7624 10.2754 10.2695 10.6979 9.63705C11.1204 9.00463 11.3459 8.2611 11.3459 7.5005C11.3467 6.99525 11.2478 6.49482 11.0548 6.02788C10.8619 5.56095 10.5787 5.13669 10.2215 4.77943C9.86433 4.42216 9.44016 4.13892 8.97332 3.94594C8.50647 3.75295 8.00614 3.65402 7.501 3.6548ZM7.501 10.0002C7.00669 10.0002 6.52348 9.85364 6.11248 9.57897C5.70148 9.30429 5.38115 8.91388 5.19199 8.45711C5.00282 8.00034 4.95333 7.49773 5.04976 7.01282C5.1462 6.52792 5.38423 6.0825 5.73376 5.73291C6.08328 5.38331 6.52861 5.14523 7.01342 5.04878C7.49822 4.95233 8.00074 5.00183 8.45742 5.19103C8.9141 5.38023 9.30443 5.70063 9.57905 6.11171C9.85367 6.52279 10.0002 7.00609 10.0002 7.5005C9.99893 8.16307 9.7352 8.79813 9.26678 9.26664C8.79837 9.73515 8.16343 9.99893 7.501 10.0002ZM12.4 3.49751C12.4 3.67472 12.3474 3.84794 12.249 3.99528C12.1506 4.14263 12.0107 4.25746 11.847 4.32528C11.6833 4.39309 11.5032 4.41083 11.3294 4.37626C11.1557 4.34169 10.996 4.25636 10.8708 4.13106C10.7455 4.00575 10.6602 3.84611 10.6256 3.67231C10.591 3.49851 10.6088 3.31836 10.6766 3.15464C10.7444 2.99092 10.8592 2.85099 11.0065 2.75254C11.1538 2.65409 11.327 2.60154 11.5042 2.60154C11.7418 2.60154 11.9696 2.69594 12.1376 2.86397C12.3056 3.03199 12.4 3.25989 12.4 3.49751ZM14.946 4.40742C14.9707 3.24131 14.5356 2.11233 13.7347 1.26456C12.8854 0.466159 11.7578 0.0313796 10.5925 0.0530115C9.35429 -0.0176705 5.64372 -0.0176705 4.40554 0.0530115C3.2414 0.0290175 2.11403 0.461332 1.26431 1.25759C0.463719 2.10716 0.0287269 3.23722 0.0530009 4.40443C-0.017667 5.64286 -0.017667 9.35416 0.0530009 10.5926C0.0282745 11.7587 0.463404 12.8877 1.26431 13.7354C2.11392 14.5333 3.24132 14.968 4.40654 14.947C5.64472 15.0177 9.35528 15.0177 10.5935 14.947C11.7593 14.9717 12.8881 14.5365 13.7357 13.7354C14.5339 12.886 14.9686 11.7581 14.947 10.5926C15.0177 9.35416 15.0177 5.64584 14.947 4.40742H14.946ZM13.3425 11.9216C13.2153 12.2442 13.0231 12.5373 12.778 12.7825C12.5328 13.0277 12.2398 13.2199 11.9172 13.3472C10.4639 13.6448 8.97715 13.7452 7.49701 13.6458C6.01688 13.7436 4.53033 13.6432 3.07679 13.3472C2.75423 13.2199 2.46126 13.0277 2.21607 12.7825C1.97089 12.5373 1.77872 12.2442 1.65149 11.9216C1.35397 10.468 1.25354 8.98092 1.35289 7.5005C1.25514 6.02007 1.35556 4.53322 1.65149 3.07939C1.77939 2.75675 1.97227 2.46388 2.21816 2.21897C2.46404 1.97407 2.75766 1.78237 3.08077 1.6558C4.53409 1.35822 6.02086 1.25777 7.501 1.35714C8.98113 1.25937 10.4677 1.35981 11.9212 1.6558C12.2429 1.78329 12.5349 1.97539 12.7794 2.22025C13.0239 2.46511 13.2155 2.75751 13.3425 3.07939C13.6401 4.533 13.7405 6.02007 13.6411 7.5005C13.7406 8.98092 13.6401 10.468 13.3425 11.9216Z" fill="#8E959F"/>
</svg>
