<svg width="24" height="23" viewBox="0 0 24 23" fill="none" xmlns="http://www.w3.org/2000/svg">
<path d="M23.8985 4.08427C23.8955 4.05237 23.8808 4.02268 23.8571 4.00096H23.7733C23.6068 4.00096 23.4393 3.9588 23.2687 3.9588C23.1436 3.9588 22.9761 3.91664 22.8509 3.91664L22.5169 3.87449C21.8488 3.79118 21.1394 3.74902 20.4713 3.62455C17.4898 3.06291 14.6697 1.85375 12.2121 0.0833115C12.1254 0.0421576 12.084 0 12.0426 0C12.0012 0 11.9588 0 11.8761 0.0833115C9.41246 1.84791 6.59148 3.05675 3.60987 3.62556C2.9337 3.74985 2.25058 3.83331 1.56426 3.87549L1.18784 3.91464C1.02132 3.91464 0.895176 3.95679 0.728661 3.95679C0.562146 3.95679 0.394622 3.99895 0.22407 3.99895H0.144345C0.141617 4.03171 0.126464 4.06221 0.101959 4.08427C-0.190704 5.0007 0.227097 6.66793 0.352236 7.62652C0.70341 10.0435 1.39192 12.4 2.39785 14.6277C3.99246 17.7768 6.14639 20.6132 8.75569 23C8.83946 22.5413 8.95753 21.7453 9.03826 21.0367C6.92856 18.9669 5.14114 16.5957 3.73501 14.0014C2.81775 11.8966 2.17343 9.68427 1.81757 7.41774C1.77586 7.20962 1.73414 6.95969 1.69243 6.66793C1.65105 6.37584 1.56729 5.83482 1.48353 5.3761L1.85894 5.33394C2.48464 5.25063 3.11134 5.20848 3.77639 5.08401C6.70031 4.52745 9.48252 3.394 11.9588 1.75055C14.4277 3.40786 17.2129 4.54252 20.1413 5.08401C20.8094 5.20948 21.4351 5.25063 22.0204 5.33394L22.3958 5.3761C22.36 5.81146 22.2902 6.24338 22.1869 6.66793C22.1452 6.95969 22.1035 7.20962 22.0618 7.41774C21.8132 9.69696 21.1929 11.9207 20.225 14.0014C18.8444 16.6003 17.0704 18.9727 14.9652 21.0357C15.0903 21.7443 15.2054 22.4991 15.2478 22.999C17.8601 20.6149 20.0144 17.7779 21.6056 14.6267C22.6345 12.4087 23.323 10.0497 23.6482 7.62852C23.7733 6.66693 24.1901 5.0007 23.8985 4.08427Z" fill="#4A4A4A"/>
</svg>
