<svg width="16" height="13" viewBox="0 0 16 13" fill="none" xmlns="http://www.w3.org/2000/svg">
<path d="M14.3548 3.24006C14.3649 3.38238 14.3649 3.52469 14.3649 3.66701C14.3735 4.89498 14.1379 6.1124 13.6721 7.24855C13.2063 8.3847 12.5194 9.41692 11.6513 10.2853C10.7833 11.1536 9.75139 11.8407 8.61561 12.3067C7.47984 12.7727 6.26282 13.0083 5.03525 12.9998C3.25004 13.0042 1.50154 12.4927 0 11.5268C0.262854 11.5558 0.527178 11.5694 0.791616 11.5675C2.2675 11.5711 3.70157 11.0773 4.8625 10.1657C4.17826 10.1531 3.51502 9.92716 2.96538 9.51931C2.41574 9.11145 2.00714 8.54208 1.79663 7.89069C2.00136 7.92312 2.20823 7.94011 2.4155 7.94152C2.70663 7.94062 2.9965 7.90305 3.27825 7.8297C2.53576 7.67941 1.86819 7.27661 1.38896 6.68974C0.909723 6.10287 0.648386 5.36813 0.649349 4.61035V4.56969C1.10382 4.82355 1.61184 4.96636 2.13198 4.98646C1.43582 4.52222 0.94302 3.80971 0.75417 2.99437C0.56532 2.17902 0.694658 1.32231 1.11578 0.599117C1.93945 1.61336 2.96704 2.44309 4.13191 3.03447C5.29679 3.62586 6.57292 3.96569 7.87755 4.03194C7.82492 3.78496 7.79768 3.53325 7.79625 3.28073C7.79679 2.62272 7.99495 1.98005 8.36504 1.43607C8.73514 0.892083 9.26008 0.471884 9.8718 0.229963C10.4835 -0.0119573 11.1538 -0.0644382 11.7957 0.0793267C12.4376 0.223092 13.0215 0.55647 13.4717 1.03623C14.206 0.894834 14.9102 0.62689 15.5529 0.244348C15.3087 1.00255 14.7963 1.64556 14.1119 2.05276C14.7631 1.97843 15.3995 1.80712 16 1.54449C15.5511 2.19814 14.9943 2.77138 14.3548 3.24006Z" fill="#8E959F"/>
</svg>
